<svg
  width="20"
  height="20"
  viewBox="0 0 20 20"
  fill="none"
  xmlns="http://www.w3.org/2000/svg"
>
  <path
    d="M4.98382 4.54098H18.5577L16.6253 12.7538C16.3743 13.8201 15.4228 14.5738 14.3274 14.5738H9.45671C8.38555 14.5738 7.44868 13.8526 7.1746 12.8172L4.98382 4.54098ZM4.98382 4.54098L4.09857 1H1.44281"
    stroke="currentColor"
    stroke-width="1.5"
    stroke-linecap="round"
    stroke-linejoin="round"
  />
  <path
    d="M7.64054 19.0003C8.29242 19.0003 8.82088 18.4719 8.82088 17.82C8.82088 17.1681 8.29242 16.6396 7.64054 16.6396C6.98866 16.6396 6.46021 17.1681 6.46021 17.82C6.46021 18.4719 6.98866 19.0003 7.64054 19.0003Z"
    fill="currentColor"
  />
  <path
    d="M15.9036 19.0003C16.5555 19.0003 17.0839 18.4719 17.0839 17.82C17.0839 17.1681 16.5555 16.6396 15.9036 16.6396C15.2517 16.6396 14.7233 17.1681 14.7233 17.82C14.7233 18.4719 15.2517 19.0003 15.9036 19.0003Z"
    fill="currentColor"
  />
</svg>
